{
  "accessors": [
    {
      "bufferView": 1,
      "componentType": 5126,
      "count": 65532,
      "max": [
        3.6436960697174072,
        1.1650235652923584,
        7.877043724060059
      ],
      "min": [
        -3.5918514728546143,
        -1.7097259759902954,
        -7.999432563781738
      ],
      "type": "VEC3"
    },
    {
      "bufferView": 1,
      "byteOffset": 786384,
      "componentType": 5126,
      "count": 65532,
      "max": [
        0.9999660849571228,
        0.9999979734420776,
        0.9999037981033325
      ],
      "min": [
        -0.9999904632568359,
        -0.9999995231628418,
        -0.9999802112579346
      ],
      "type": "VEC3"
    },
    {
      "bufferView": 0,
      "componentType": 5125,
      "count": 327342,
      "type": "SCALAR"
    },
    {
      "bufferView": 1,
      "byteOffset": 1572768,
      "componentType": 5126,
      "count": 65534,
      "max": [
        3.6198983192443848,
        1.1648732423782349,
        7.8796234130859375
      ],
      "min": [
        -3.6424765586853027,
        -1.7097259759902954,
        -8.007233619689941
      ],
      "type": "VEC3"
    },
    {
      "bufferView": 1,
      "byteOffset": 2359176,
      "componentType": 5126,
      "count": 65534,
      "max": [
        0.9999827146530151,
        0.9999898076057434,
        0.9999987483024597
      ],
      "min": [
        -0.9999904632568359,
        -0.9999995231628418,
        -0.9999946355819702
      ],
      "type": "VEC3"
    },
    {
      "bufferView": 0,
      "byteOffset": 1309368,
      "componentType": 5125,
      "count": 292113,
      "type": "SCALAR"
    },
    {
      "bufferView": 1,
      "byteOffset": 3145584,
      "componentType": 5126,
      "count": 8128,
      "max": [
        3.6025240421295166,
        1.1650235652923584,
        7.740119934082031
      ],
      "min": [
        -3.63580584526062,
        -1.7021381855010986,
        -8.007233619689941
      ],
      "type": "VEC3"
    },
    {
      "bufferView": 1,
      "byteOffset": 3243120,
      "componentType": 5126,
      "count": 8128,
      "max": [
        0.9999631643295288,
        0.9999979734420776,
        0.999634325504303
      ],
      "min": [
        -0.9999675154685974,
        -0.9999942183494568,
        -0.9999599456787109
      ],
      "type": "VEC3"
    },
    {
      "bufferView": 0,
      "byteOffset": 2477820,
      "componentType": 5125,
      "count": 12033,
      "type": "SCALAR"
    }
  ],
  "asset": {
    "extras": {
      "author": "Ruslan Gadzhiev (https://sketchfab.com/ruslangadzhiev)",
      "license": "CC-BY-4.0 (http://creativecommons.org/licenses/by/4.0/)",
      "source": "https://sketchfab.com/3d-models/male-body-muscular-system-anatomy-study-991eb96938be4d0d8fadee241a1063d3",
      "title": "Male Body Muscular System - Anatomy Study"
    },
    "generator": "Sketchfab-13.85.0",
    "version": "2.0"
  },
  "bufferViews": [
    {
      "buffer": 0,
      "byteLength": 2525952,
      "name": "floatBufferViews",
      "target": 34963
    },
    {
      "buffer": 0,
      "byteLength": 3340656,
      "byteOffset": 2525952,
      "byteStride": 12,
      "name": "floatBufferViews",
      "target": 34962
    }
  ],
  "buffers": [
    {
      "byteLength": 5866608,
      "uri": "scene.bin"
    }
  ],
  "extensionsRequired": [
    "KHR_materials_pbrSpecularGlossiness"
  ],
  "extensionsUsed": [
    "KHR_materials_pbrSpecularGlossiness"
  ],
  "materials": [
    {
      "doubleSided": true,
      "extensions": {
        "KHR_materials_pbrSpecularGlossiness": {
          "diffuseFactor": [
            0.5830405018,
            0.5830405018,
            0.5830405018,
            1.0
          ],
          "glossinessFactor": 0.4163490854,
          "specularFactor": [
            0.1114710366,
            0.1114710366,
            0.1114710366
          ]
        }
      },
      "name": "material_0"
    }
  ],
  "meshes": [
    {
      "name": "Object_0",
      "primitives": [
        {
          "attributes": {
            "NORMAL": 1,
            "POSITION": 0
          },
          "indices": 2,
          "material": 0,
          "mode": 4
        }
      ]
    },
    {
      "name": "Object_1",
      "primitives": [
        {
          "attributes": {
            "NORMAL": 4,
            "POSITION": 3
          },
          "indices": 5,
          "material": 0,
          "mode": 4
        }
      ]
    },
    {
      "name": "Object_2",
      "primitives": [
        {
          "attributes": {
            "NORMAL": 7,
            "POSITION": 6
          },
          "indices": 8,
          "material": 0,
          "mode": 4
        }
      ]
    }
  ],
  "nodes": [
    {
      "children": [
        1
      ],
      "matrix": [
        1.0,
        0.0,
        0.0,
        0.0,
        0.0,
        2.220446049250313e-16,
        -1.0,
        0.0,
        0.0,
        1.0,
        2.220446049250313e-16,
        0.0,
        0.0,
        0.0,
        0.0,
        1.0
      ],
      "name": "Sketchfab_model"
    },
    {
      "children": [
        2,
        3,
        4
      ],
      "name": "male_skeleton_first_muscles_anatomy_study.OBJ.cleaner.gles"
    },
    {
      "mesh": 0,
      "name": "Object_2"
    },
    {
      "mesh": 1,
      "name": "Object_3"
    },
    {
      "mesh": 2,
      "name": "Object_4"
    }
  ],
  "scene": 0,
  "scenes": [
    {
      "name": "Sketchfab_Scene",
      "nodes": [
        0
      ]
    }
  ]
}
